<svg width="30" height="30" viewBox="0 0 30 30" fill="none" xmlns="http://www.w3.org/2000/svg">
<g clip-path="url(#clip0)">
<path d="M29.4888 8.92887C29.4208 7.36877 29.1714 6.29621 28.814 5.36683C28.4454 4.38031 27.8782 3.49708 27.1352 2.76285C26.4092 2.0172 25.5301 1.43779 24.566 1.07078C23.6417 0.709383 22.5867 0.457096 21.0441 0.388311C19.49 0.3137 18.9966 0.296448 15.0549 0.296448C11.1133 0.296448 10.6199 0.3137 9.07154 0.382485C7.52895 0.45127 6.46843 0.703781 5.54969 1.06496C4.57403 1.43779 3.70071 2.01137 2.97472 2.76285C2.23742 3.49708 1.66474 4.38614 1.30163 5.36123C0.944285 6.29621 0.694829 7.36294 0.626816 8.92304C0.553043 10.4948 0.535984 10.9938 0.535984 14.9802C0.535984 18.9666 0.553043 19.4655 0.621056 21.0315C0.689069 22.5916 0.938747 23.6641 1.29609 24.5935C1.66474 25.58 2.23742 26.4632 2.97472 27.1975C3.70071 27.9431 4.57978 28.5225 5.54393 28.8895C6.46843 29.2509 7.52319 29.5032 9.066 29.572C10.6141 29.641 11.1077 29.6581 15.0494 29.6581C18.9911 29.6581 19.4844 29.641 21.0328 29.572C22.5754 29.5032 23.6359 29.2509 24.5547 28.8895C26.5058 28.1266 28.0484 26.5665 28.8027 24.5935C29.1598 23.6585 29.4095 22.5916 29.4775 21.0315C29.5455 19.4655 29.5626 18.9666 29.5626 14.9802C29.5626 10.9938 29.5568 10.4948 29.4888 8.92887ZM26.8744 20.9167C26.8119 22.3507 26.5738 23.125 26.3753 23.6413C25.8874 24.9204 24.8836 25.9356 23.6189 26.429C23.1084 26.6297 22.3372 26.8706 20.9249 26.9335C19.3936 27.0025 18.9344 27.0196 15.0607 27.0196C11.187 27.0196 10.722 27.0025 9.19627 26.9335C7.7784 26.8706 7.01276 26.6297 6.50232 26.429C5.87292 26.1937 5.30002 25.8209 4.835 25.3333C4.35293 24.8572 3.98428 24.2836 3.75166 23.6471C3.55316 23.1309 3.315 22.3507 3.25275 20.9226C3.18452 19.3739 3.16768 18.9092 3.16768 14.9916C3.16768 11.074 3.18452 10.6037 3.25275 9.06084C3.315 7.62688 3.55316 6.85254 3.75166 6.33632C3.98428 5.69955 4.35293 5.12037 4.84076 4.64985C5.31132 4.16231 5.87846 3.78948 6.50808 3.55444C7.01852 3.35369 7.78992 3.11283 9.20203 3.04964C10.7333 2.98086 11.1928 2.96361 15.0662 2.96361C18.9457 2.96361 19.4049 2.98086 20.9307 3.04964C22.3485 3.11283 23.1142 3.35369 23.6246 3.55444C24.254 3.78948 24.8269 4.16231 25.2919 4.64985C25.774 5.12597 26.1427 5.69955 26.3753 6.33632C26.5738 6.85254 26.8119 7.63248 26.8744 9.06084C26.9424 10.6095 26.9595 11.074 26.9595 14.9916C26.9595 18.9092 26.9424 19.3681 26.8744 20.9167Z" fill="white"/>
<path d="M15.0538 7.43755C10.9365 7.43755 7.59586 10.8159 7.59586 14.9802C7.59586 19.1445 10.9365 22.5228 15.0538 22.5228C19.1714 22.5228 22.5118 19.1445 22.5118 14.9802C22.5118 10.8159 19.1714 7.43755 15.0538 7.43755ZM15.0538 19.8729C12.3827 19.8729 10.216 17.6818 10.216 14.9802C10.216 12.2785 12.3827 10.0875 15.0538 10.0875C17.7252 10.0875 19.8916 12.2785 19.8916 14.9802C19.8916 17.6818 17.7252 19.8729 15.0538 19.8729Z" fill="white"/>
<path d="M24.548 7.13933C24.548 8.11173 23.7684 8.90018 22.8067 8.90018C21.8452 8.90018 21.0656 8.11173 21.0656 7.13933C21.0656 6.1667 21.8452 5.37847 22.8067 5.37847C23.7684 5.37847 24.548 6.1667 24.548 7.13933Z" fill="white"/>
</g>
<defs>
<clipPath id="clip0">
<rect width="29.0323" height="29.3617" fill="white" transform="translate(0.483887 0.296448)"/>
</clipPath>
</defs>
</svg>
