<svg width="30" height="30" viewBox="0 0 30 30" fill="none" xmlns="http://www.w3.org/2000/svg">
<path fill-rule="evenodd" clip-rule="evenodd" d="M24.6038 5.20085C22.0575 2.62258 18.6711 1.20207 15.0634 1.20055C7.62931 1.20055 1.57908 7.31927 1.57609 14.8397C1.57509 17.2437 2.19606 19.5905 3.37637 21.659L1.46296 28.7271L8.61276 26.8303C10.5828 27.9172 12.8007 28.4899 15.0579 28.4906H15.0635C22.4967 28.4906 28.5476 22.3714 28.5505 14.8506C28.5519 11.2058 27.1504 7.77895 24.6038 5.20085ZM15.0634 26.187H15.0587C13.0473 26.1862 11.0746 25.6395 9.35318 24.6067L8.94402 24.3609L4.70121 25.4866L5.83368 21.303L5.56705 20.8741C4.44488 19.069 3.85232 16.9826 3.85332 14.8405C3.85564 8.58976 8.88454 3.50429 15.0678 3.50429C18.0621 3.5053 20.8767 4.68607 22.9931 6.82902C25.1095 8.97198 26.2744 11.8204 26.2734 14.8498C26.2707 21.1011 21.2422 26.187 15.0634 26.187ZM21.2123 17.696C20.8754 17.5253 19.2184 16.7011 18.9095 16.5872C18.6008 16.4734 18.3759 16.4168 18.1514 16.7579C17.9267 17.0989 17.2809 17.8667 17.0843 18.094C16.8876 18.3215 16.6912 18.3501 16.3541 18.1794C16.0171 18.0088 14.9313 17.6488 13.644 16.4877C12.6423 15.584 11.966 14.4679 11.7693 14.1268C11.5729 13.7854 11.7676 13.6188 11.9171 13.4313C12.2819 12.9731 12.6472 12.4928 12.7595 12.2655C12.872 12.038 12.8157 11.8389 12.7313 11.6684C12.6472 11.4978 11.9733 9.82026 11.6925 9.13764C11.4188 8.47333 11.1412 8.56304 10.9342 8.55263C10.7378 8.54272 10.5131 8.5407 10.2883 8.5407C10.0637 8.5407 9.69855 8.62588 9.38956 8.96727C9.08074 9.3085 8.21025 10.1329 8.21025 11.8105C8.21025 13.4881 9.4178 15.1087 9.58625 15.3362C9.7547 15.5636 11.9627 19.0061 15.3431 20.4823C16.1471 20.8337 16.7748 21.0433 17.2643 21.2003C18.0717 21.4598 18.8061 21.4231 19.3869 21.3354C20.0344 21.2375 21.3805 20.5108 21.6616 19.7148C21.9424 18.9186 21.9424 18.2363 21.858 18.094C21.7739 17.9519 21.5492 17.8667 21.2123 17.696Z" fill="white"/>
</svg>
